<?xml version="1.0" encoding="utf-8"?>
<!-- Generator: Adobe Illustrator 27.2.0, SVG Export Plug-In . SVG Version: 6.00 Build 0)  -->
<svg version="1.1" id="Layer_1" xmlns="http://www.w3.org/2000/svg" xmlns:xlink="http://www.w3.org/1999/xlink" x="0px" y="0px"
	 viewBox="0 0 129 128" style="enable-background:new 0 0 129 128;" xml:space="preserve">
<style type="text/css">
	.st0{fill:#6789FF;}
	.st1{fill:#D8E0FF;}
	.st2{fill:none;stroke:#6789FF;stroke-width:5;}
	.st3{clip-path:url(#SVGID_00000009547748254205857820000009057061387606330537_);}
	.st4{fill:#623CFF;}
</style>
<g id="Group_18" transform="translate(-255 -755)">
	<circle id="Ellipse_6_00000123405500939323532510000012295082496048964780_" class="st0" cx="322" cy="821" r="62"/>
	<g id="Ellipse_5_00000032611073867163326180000010284462841082034585_" transform="translate(255 755)">
		<circle class="st1" cx="67" cy="66" r="62"/>
		<circle class="st2" cx="67" cy="66" r="59.5"/>
	</g>
</g>
<g id="broken_heart-2_00000153688018735195375090000000864150812261544124_" transform="translate(29 36.137)">
	<g>
		<defs>
			<rect id="SVGID_1_" x="7" y="5.2" width="63" height="55.7"/>
		</defs>
		<clipPath id="SVGID_00000147199192050115602590000001911472857464929972_">
			<use xlink:href="#SVGID_1_"  style="overflow:visible;"/>
		</clipPath>
		
			<g id="Group_57_00000150817245741934571240000012225461502153178525_" style="clip-path:url(#SVGID_00000147199192050115602590000001911472857464929972_);">
			<path id="Path_23_00000146459194816284030120000005595945418405976751_" class="st4" d="M34.5,59l-3.8-9.5
				c-0.9-2.2-0.3-4.8,1.5-6.4l10.3-11.2c0.1-0.1,0.1-0.2,0-0.3L35.2,22c-1.4-1.5-1.8-3.7-1-5.6l1.6-6.5C23.6-0.4,7,6.9,7,25.3
				C7,40.8,26,53.9,34.5,59"/>
			<path id="Path_24_00000175295391344616823530000016790112249084901773_" class="st4" d="M40.9,10.3l-2,7.9l-0.1,0.2
				c0,0.1,0,0.1,0,0.2l0.2,0.3l7.4,9.6c1.6,2,1.4,4.9-0.3,6.7L35.6,46.8c-0.3,0.2-0.3,0.6-0.2,0.9l5,12.6c6.8-3.8,29.6-18,29.6-34.9
				C70,6.7,53.7-0.4,40.9,10.3"/>
		</g>
	</g>
</g>
</svg>
