<?xml version="1.0" encoding="utf-8"?>
<!-- Generator: Adobe Illustrator 27.2.0, SVG Export Plug-In . SVG Version: 6.00 Build 0)  -->
<svg version="1.1" id="Layer_1" xmlns="http://www.w3.org/2000/svg" xmlns:xlink="http://www.w3.org/1999/xlink" x="0px" y="0px"
	 viewBox="0 0 129 128" style="enable-background:new 0 0 129 128;" xml:space="preserve">
<style type="text/css">
	.st0{fill:#6789FF;}
	.st1{fill:#D8E0FF;}
	.st2{fill:none;stroke:#6789FF;stroke-width:5;}
	.st3{clip-path:url(#SVGID_00000096040671385885494260000006613787375036409222_);}
	.st4{fill:#623CFF;}
</style>
<g id="Group_18" transform="translate(-255 -755)">
	<circle id="Ellipse_6_00000123405500939323532510000012295082496048964780_" class="st0" cx="322" cy="821" r="62"/>
	<g id="Ellipse_5_00000032611073867163326180000010284462841082034585_" transform="translate(255 755)">
		<circle class="st1" cx="62" cy="62" r="62"/>
		<circle class="st2" cx="62" cy="62" r="59.5"/>
	</g>
</g>
<g id="broken_heart-2" transform="translate(29 36.137)">
	<g>
		<defs>
			<rect id="SVGID_1_" x="2" y="1.3" width="63" height="55.7"/>
		</defs>
		<clipPath id="SVGID_00000180338919925172648700000003511364990504105633_">
			<use xlink:href="#SVGID_1_"  style="overflow:visible;"/>
		</clipPath>
		<g id="Group_57" style="clip-path:url(#SVGID_00000180338919925172648700000003511364990504105633_);">
			<path id="Path_23" class="st4" d="M29.5,55.1l-3.8-9.5c-0.9-2.2-0.3-4.8,1.5-6.4l10.3-11.2c0.1-0.1,0.1-0.2,0-0.3l-7.3-9.5
				c-1.4-1.5-1.8-3.7-1-5.6L30.8,6C18.6-4.3,2,3,2,21.4C2,36.9,21,50,29.5,55.1"/>
			<path id="Path_24" class="st4" d="M35.9,6.4l-2,7.9l-0.1,0.2c0,0.1,0,0.1,0,0.2l0.2,0.3l7.4,9.6c1.6,2,1.4,4.9-0.3,6.7L30.6,42.9
				c-0.3,0.2-0.3,0.6-0.2,0.9l5,12.6c6.8-3.8,29.6-18,29.6-34.9C65,2.8,48.7-4.4,35.9,6.4"/>
		</g>
	</g>
</g>
</svg>
