<?xml version="1.0" encoding="utf-8"?>
<!-- Generator: Adobe Illustrator 27.2.0, SVG Export Plug-In . SVG Version: 6.00 Build 0)  -->
<svg version="1.1" id="Layer_1" xmlns="http://www.w3.org/2000/svg" xmlns:xlink="http://www.w3.org/1999/xlink" x="0px" y="0px"
	 viewBox="0 0 134.7 134.7" style="enable-background:new 0 0 134.7 134.7;" xml:space="preserve">
<style type="text/css">
	.st0{fill:#6789FF;stroke:#6789FF;stroke-width:7.3143;stroke-miterlimit:10;}
	.st1{fill:#D8E0FF;stroke:#6789FF;stroke-width:6;stroke-miterlimit:10;}
	.st2{clip-path:url(#SVGID_00000183939812731112198080000010071033470580075179_);}
	.st3{fill:#623CFF;}
</style>
<g id="Layer_2_copy">
	<ellipse class="st0" cx="69.1" cy="68.6" rx="61.9" ry="62.4"/>
</g>
<g id="Layer_2_00000134971092267289427800000016224312238671375007_">
	<ellipse class="st1" cx="68.9" cy="69.4" rx="61.9" ry="62.4"/>
</g>
<g id="Layer_4">
	<g id="broken_heart-2" transform="translate(29 36.137)">
		<g>
			<g>
				<defs>
					<rect id="SVGID_1_" x="7.1" y="7.2" width="65.6" height="58.5"/>
				</defs>
				<clipPath id="SVGID_00000170271272930862543050000014611592950936826261_">
					<use xlink:href="#SVGID_1_"  style="overflow:visible;"/>
				</clipPath>
				<g id="Group_57" style="clip-path:url(#SVGID_00000170271272930862543050000014611592950936826261_);">
					<path id="Path_23" class="st3" d="M35.7,63.7l-3.9-10c-0.9-2.4-0.3-5,1.6-6.7l10.7-11.8c0.1-0.1,0.1-0.2,0-0.3l-7.6-10
						c-1.5-1.6-1.9-3.9-1-5.8l1.7-6.9C24.4,1.3,7.1,9,7.1,28.3C7.1,44.5,26.9,58.3,35.7,63.7"/>
					<path id="Path_24" class="st3" d="M42.4,12.6l-2.1,8.2l-0.1,0.3c0,0.1,0,0.1,0,0.2l0.2,0.3l7.7,10.1c1.6,2.1,1.5,5.1-0.3,7.1
						l-11,12.1c-0.3,0.2-0.4,0.6-0.2,0.9L41.9,65c7-4,30.8-18.9,30.8-36.7C72.7,8.8,55.7,1.3,42.4,12.6"/>
				</g>
			</g>
		</g>
	</g>
</g>
</svg>
