<?xml version="1.0" encoding="utf-8"?>
<!-- Generator: Adobe Illustrator 27.2.0, SVG Export Plug-In . SVG Version: 6.00 Build 0)  -->
<svg version="1.1" xmlns="http://www.w3.org/2000/svg" xmlns:xlink="http://www.w3.org/1999/xlink" x="0px" y="0px"
	 viewBox="0 0 134.7 134.7" style="enable-background:new 0 0 134.7 134.7;" xml:space="preserve">
<style type="text/css">
	.st0{fill:#6789FF;stroke:#6789FF;stroke-width:7.3143;stroke-miterlimit:10;}
	.st1{fill:#D8E0FF;stroke:#6789FF;stroke-width:6;stroke-miterlimit:10;}
	.st2{clip-path:url(#SVGID_00000176751317406369826630000013104413136044281263_);}
	.st3{fill:#623CFF;}
</style>
<g id="Layer_2_copy">
	<ellipse class="st0" cx="69.1" cy="68.6" rx="61.9" ry="62.4"/>
</g>
<g id="Layer_2">
	<ellipse class="st1" cx="64.9" cy="65.4" rx="61.9" ry="62.4"/>
</g>
<g id="Layer_4">
	<g id="broken_heart-2" transform="translate(29 36.137)">
		<g>
			<defs>
				<rect id="SVGID_1_" x="3.1" y="3.2" width="65.6" height="58.5"/>
			</defs>
			<clipPath id="SVGID_00000096047389397386069050000006763898803078805895_">
				<use xlink:href="#SVGID_1_"  style="overflow:visible;"/>
			</clipPath>
			<g id="Group_57" style="clip-path:url(#SVGID_00000096047389397386069050000006763898803078805895_);">
				<path id="Path_23" class="st3" d="M31.7,59.7l-3.9-10c-0.9-2.4-0.3-5,1.6-6.7l10.7-11.8c0.1-0.1,0.1-0.2,0-0.3l-7.6-10
					c-1.5-1.6-1.9-3.9-1-5.8l1.7-6.9C20.4-2.7,3.1,5,3.1,24.3C3.1,40.5,22.9,54.3,31.7,59.7"/>
				<path id="Path_24" class="st3" d="M38.4,8.6l-2.1,8.2l-0.1,0.3c0,0.1,0,0.1,0,0.2l0.2,0.3l7.7,10.1c1.6,2.1,1.5,5.1-0.3,7.1
					l-11,12.1c-0.3,0.2-0.4,0.6-0.2,0.9L37.9,61c7-4,30.8-18.9,30.8-36.7C68.7,4.8,51.7-2.7,38.4,8.6"/>
			</g>
		</g>
	</g>
</g>
</svg>
