<?xml version="1.0" encoding="utf-8"?>
<!-- Generator: Adobe Illustrator 27.2.0, SVG Export Plug-In . SVG Version: 6.00 Build 0)  -->
<svg version="1.1" xmlns="http://www.w3.org/2000/svg" xmlns:xlink="http://www.w3.org/1999/xlink" x="0px" y="0px"
	 viewBox="0 0 50 50" style="enable-background:new 0 0 50 50;" xml:space="preserve">
<style type="text/css">
	.st0{display:none;}
	.st1{display:inline;}
	.st2{fill:#623CFF;}
	.st3{fill:#FFFFFF;}
	.st4{fill:#623CFF;stroke:#FFFFFF;stroke-width:1.7366;stroke-miterlimit:10;}
</style>
<g id="Layer_2" class="st0">
	<rect x="0" class="st1" width="50" height="50"/>
</g>
<g id="mag_heart" class="st0">
	<g id="mag_heRT" class="st1">
		<path class="st2" d="M33.1,27c-0.6-0.3-14.6-6.7-14.6-15.7c0-6.5,4.5-10,9-10c2.4,0,4.6,1,6.1,2.7c1.8-1.9,4.2-2.9,6.5-2.9
			c4.1,0,8.4,3.2,8.4,10.2c0,8.7-14,15.4-14.6,15.7l-0.4,0.2L33.1,27z"/>
		<path class="st3" d="M40,2c3.9,0,7.5,3.3,7.5,9.3c0,8.2-14.1,14.9-14.1,14.9s-14.1-6.4-14.1-14.9c0-6.1,4.1-9.1,8.1-9.1
			c2.4,0,4.6,1.1,6,3.2C35.3,3.1,37.7,2,40,2 M40,0.3L40,0.3c-2.3,0-4.6,0.9-6.5,2.6c-1.6-1.5-3.8-2.3-6.1-2.3
			c-4.9,0-9.9,3.7-9.9,10.8c0,4.1,2.6,8.1,7.8,12c3.6,2.7,7.2,4.4,7.4,4.4l0.7,0.3l0.7-0.3c0.6-0.3,15.1-7.2,15.1-16.4
			C49.3,5.8,46.1,0.3,40,0.3L40,0.3z"/>
	</g>
</g>
<g id="OUTSIDE">
	<g>
		<path class="st2" d="M47.5,11.3c0,8.2-14.1,14.9-14.1,14.9s-1.8-0.8-4.1-2.3c-0.6-0.4-1.2-0.8-1.9-1.2c0.1-0.2,0.3-0.5,0.4-0.7
			c1.2-2.5,1.4-5.3,0.6-7.8c-0.1-0.4-0.2-0.8-0.4-1.1c0-0.1,0-0.1-0.1-0.2c-1-2.2-2.7-4-5-5.2c-0.9-0.4-1.8-0.7-2.8-0.9
			c0.1-0.2,0.2-0.4,0.3-0.7c0.1-0.2,0.3-0.5,0.5-0.7c0.2-0.2,0.3-0.4,0.5-0.6c0.1-0.1,0.2-0.2,0.3-0.3c0.4-0.4,0.8-0.7,1.2-1
			c0.3-0.2,0.5-0.3,0.8-0.4c0.2-0.1,0.4-0.2,0.6-0.3c0.2-0.1,0.5-0.2,0.7-0.2c0.2-0.1,0.5-0.1,0.7-0.2s0.5-0.1,0.7-0.1
			c0.2,0,0.5,0,0.8,0c1.3,0,2.6,0.3,3.8,1c0.2,0.2,0.5,0.3,0.7,0.5c0.2,0.2,0.5,0.4,0.7,0.6c0.3,0.3,0.6,0.7,0.9,1.1
			C35.3,3.1,37.7,2,40,2c0.2,0,0.5,0,0.7,0c0.2,0,0.5,0.1,0.7,0.1c0.2,0.1,0.5,0.1,0.7,0.2c0.2,0.1,0.5,0.2,0.7,0.3
			c0.2,0.1,0.4,0.2,0.7,0.3c0.2,0.1,0.4,0.3,0.6,0.4c0.2,0.1,0.4,0.3,0.6,0.5c0.2,0.2,0.4,0.4,0.5,0.6C46.7,6,47.5,8.3,47.5,11.3z"
			/>
		<path id="mag_heRT_00000033347551182569650560000009753779859766031489_" class="st3" d="M40,0.3c-2.3,0-4.6,0.9-6.5,2.6
			c-1.6-1.5-3.8-2.3-6.1-2.3c-2.9,0-5.9,1.3-7.8,4c-0.5,0.6-0.9,1.4-1.2,2.1c0.6,0,1.2,0.1,1.8,0.2c0.1-0.2,0.2-0.4,0.3-0.7
			c0.1-0.2,0.3-0.5,0.5-0.7c0.2-0.2,0.3-0.4,0.5-0.6c0.1-0.1,0.2-0.2,0.3-0.3c0.4-0.4,0.8-0.7,1.2-1c0.3-0.2,0.5-0.3,0.8-0.4
			c0.2-0.1,0.4-0.2,0.6-0.3c0.2-0.1,0.5-0.2,0.7-0.2c0.2-0.1,0.5-0.1,0.7-0.2s0.5-0.1,0.7-0.1c0.2,0,0.5,0,0.8,0
			c1.3,0,2.6,0.3,3.8,1c0.2,0.2,0.5,0.3,0.7,0.5c0.2,0.2,0.5,0.4,0.7,0.6c0.3,0.3,0.6,0.7,0.9,1.1C35.3,3.1,37.7,2,40,2
			c0.2,0,0.5,0,0.7,0c0.2,0,0.5,0.1,0.7,0.1c0.2,0.1,0.5,0.1,0.7,0.2c0.2,0.1,0.5,0.2,0.7,0.3c0.2,0.1,0.4,0.2,0.7,0.3
			c0.2,0.1,0.4,0.3,0.6,0.4c0.2,0.1,0.4,0.3,0.6,0.5c0.2,0.2,0.4,0.4,0.5,0.6c1.4,1.6,2.3,3.9,2.3,6.9c0,8.2-14.1,14.9-14.1,14.9
			s-1.8-0.8-4.1-2.3c-0.6-0.4-1.2-0.8-1.9-1.2c-0.3,0.5-0.6,1-1,1.4c0.6,0.4,1.3,0.9,1.9,1.2c2.4,1.5,4.3,2.4,4.4,2.4l0.7,0.3
			l0.7-0.3c0.6-0.3,15.1-7.2,15.1-16.4C49.3,5.8,46.1,0.3,40,0.3z"/>
	</g>
</g>
<g id="INSIDE">
	<g>
		<path class="st2" d="M29.8,23c-0.2,0.3-0.3,0.7-0.5,1c-0.3,0.5-0.6,1-1,1.4c-0.1,0.1-0.2,0.2-0.2,0.3c-0.6-0.4-1.2-0.8-1.9-1.2
			c-4.2-2.9-8.9-7.2-8.9-12.3c0-2.2,0.5-4,1.3-5.5h0c0.2-0.4,0.5-0.8,0.8-1.2C19.6,5.2,19.8,5,20,4.8c0.1-0.1,0.1-0.1,0.2-0.2
			c0,0,0,0,0,0h0c0.4,0.1,0.9,0.2,1.3,0.3C22.4,5,23.2,5.3,24,5.7c3.1,1.5,5.3,4.2,6.4,7.2c0.2,0.4,0.3,0.8,0.4,1.2
			c0,0.1,0,0.1,0,0.2C31.5,17.1,31.2,20.2,29.8,23z"/>
		<path id="mag_heRT_00000010998800992659731540000002216229102371263160_" class="st3" d="M26.2,24.4c-4.2-2.9-8.9-7.2-8.9-12.3
			c0-2.2,0.5-4,1.3-5.5h0c0.2-0.4,0.5-0.8,0.8-1.2C19.6,5.2,19.8,5,20,4.8c0.1-0.1,0.1-0.1,0.2-0.2c0,0,0,0,0,0
			c-0.2,0-0.4-0.1-0.7-0.1c-0.6-0.1-1.2-0.1-1.8,0c-0.6,0.7-1,1.5-1.4,2.4c-0.7,1.5-1,3.3-1,5.3c0,4.4,2.8,8.7,8.3,12.8
			c0.4,0.3,0.7,0.5,1.1,0.8c0.7,0.5,1.3,0.9,1.9,1.3c0.5-0.4,0.9-0.9,1.3-1.4C27.5,25.3,26.8,24.8,26.2,24.4z"/>
	</g>
</g>
<g id="heart" class="st0">
	<g class="st1">
		<path class="st2" d="M33.1,27c-0.6-0.3-14.6-6.7-14.6-15.7c0-6.5,4.5-10,9-10c2.4,0,4.6,1,6.1,2.7c1.8-1.9,4.2-2.9,6.5-2.9
			c4.1,0,8.4,3.2,8.4,10.2c0,8.7-14,15.4-14.6,15.7l-0.4,0.2L33.1,27z"/>
	</g>
	<g class="st1">
		<path class="st4" d="M19.3,11.3c0,8.5,14.1,14.9,14.1,14.9s14.1-6.6,14.1-14.9c0-9.6-9.1-12.2-14.1-5.9
			C29.8-0.3,19.3,1.7,19.3,11.3z"/>
	</g>
	<g class="st1">
		<path class="st3" d="M40,2c3.9,0,7.5,3.3,7.5,9.3c0,8.2-14.1,14.9-14.1,14.9s-14.1-6.4-14.1-14.9c0-6.1,4.1-9.1,8.1-9.1
			c2.4,0,4.6,1.1,6,3.2C35.3,3.1,37.7,2,40,2 M40,0.3L40,0.3c-2.3,0-4.6,0.9-6.5,2.6c-1.6-1.5-3.8-2.3-6.1-2.3
			c-4.9,0-9.9,3.7-9.9,10.8c0,4.1,2.6,8.1,7.8,12c3.6,2.7,7.2,4.4,7.4,4.4l0.7,0.3l0.7-0.3c0.6-0.3,15.1-7.2,15.1-16.4
			C49.3,5.8,46.1,0.3,40,0.3L40,0.3z"/>
	</g>
</g>
<g id="mag">
	<g>
		<path class="st3" d="M30.8,14.3c0-0.1,0-0.1,0-0.2c-0.1-0.4-0.2-0.8-0.4-1.2c-1.1-3-3.3-5.7-6.4-7.2c-0.8-0.4-1.6-0.7-2.4-0.9
			c-0.4-0.1-0.9-0.2-1.3-0.3h0c-0.2,0-0.4-0.1-0.7-0.1c-0.6-0.1-1.2-0.1-1.8,0c-4.6,0.2-8.9,2.8-11.1,7.1
			c-2.9,5.9-0.8,13.1,4.6,16.6c0.4,0.2,0.8,0.5,1.2,0.7s0.8,0.4,1.3,0.5c1.5,0.6,3.1,0.8,4.7,0.8c0.3,0,0.6,0,0.9-0.1
			c0.5,0,0.9-0.1,1.3-0.2c0.5-0.1,1.1-0.2,1.6-0.4c1.6-0.5,3-1.4,4.3-2.5c0.5-0.4,0.9-0.9,1.3-1.4c0.1-0.1,0.2-0.2,0.2-0.3
			c0.4-0.4,0.7-0.9,1-1.4c0.2-0.3,0.4-0.6,0.5-1C31.2,20.2,31.5,17.1,30.8,14.3z M27.8,22c-0.1,0.2-0.3,0.5-0.4,0.7
			c-0.3,0.5-0.6,1-1,1.4c-0.1,0.1-0.2,0.2-0.2,0.3c-0.4,0.5-0.9,0.9-1.4,1.3c-0.9,0.7-2,1.3-3.1,1.7c-0.5,0.2-1.1,0.3-1.6,0.4
			c-0.4,0.1-0.9,0.1-1.3,0.1c-0.5,0-1,0-1.5,0c-1.2-0.1-2.5-0.5-3.7-1c-5.3-2.6-7.4-9-4.8-14.3C10,9.9,12.3,8,14.9,7.2
			c0.5-0.2,1-0.3,1.6-0.4c0.7-0.1,1.3-0.2,2-0.2c0.1,0,0.1,0,0.2,0h0c0.6,0,1.1,0.1,1.7,0.2C21.2,7,22.1,7.3,23,7.7
			c2.3,1.1,4,3,5,5.2c0,0.1,0,0.1,0.1,0.2c0.2,0.4,0.3,0.7,0.4,1.1C29.2,16.7,29.1,19.5,27.8,22z"/>
		<path class="st3" d="M11.2,30.7l0.7,0.3c1.2,0.6,1.6,2,1.1,3.1l-7,14.1c-0.6,1.2-2,1.6-3.1,1.1L2.2,49c-1.2-0.6-1.6-2-1.1-3.1
			l7-14.1C8.7,30.6,10.1,30.1,11.2,30.7z"/>
		<rect x="8.1" y="29.5" transform="matrix(0.4432 -0.8964 0.8964 0.4432 -21.2533 27.539)" class="st3" width="6.8" height="2.8"/>
	</g>
</g>
</svg>
