<?xml version="1.0" encoding="utf-8"?>
<!-- Generator: Adobe Illustrator 27.2.0, SVG Export Plug-In . SVG Version: 6.00 Build 0)  -->
<svg version="1.1" xmlns="http://www.w3.org/2000/svg" xmlns:xlink="http://www.w3.org/1999/xlink" x="0px" y="0px"
	 viewBox="0 0 399 299.9" style="enable-background:new 0 0 399 299.9;" xml:space="preserve">
<style type="text/css">
	.st0{display:none;}
	.st1{display:inline;}
	.st2{fill:#623CFF;}
	.st3{fill:#FFFFFF;}
	.st4{fill:#FFFFFF;stroke:#FFFFFF;stroke-width:13;stroke-miterlimit:10;}
	.st5{fill:#FFFFFF;stroke:#FFFFFF;stroke-width:5;stroke-miterlimit:10;}
	.st6{display:inline;fill:none;stroke:#FFFFFF;stroke-width:13;stroke-linecap:round;stroke-miterlimit:10;}
</style>
<g id="bg">
</g>
<g id="heart" class="st0">
	<g id="heart_copy" class="st1">
	</g>
	<g id="Group_19" transform="translate(0 0)" class="st1">
		
			<image style="overflow:visible;" width="218" height="195" id="Path_18" xlink:href="672BF366341CB609.png"  transform="matrix(1 0 0 1 181.5348 99.7911)">
		</image>
		
			<image style="overflow:visible;" width="115" height="117" id="Path_18_00000170993330830620779130000008148152337502297231_" xlink:href="672BF366341CB60A.png"  transform="matrix(1 0 0 1 182.5348 177.7911)">
		</image>
	</g>
</g>
<g id="Layer_8">
	<g>
		<path class="st2" d="M284.3,289.3c-4-1.8-97.1-44.4-97.1-104.6c0-44.4,30.8-67.6,61.3-67.6c15.4,0,29.6,6,39.7,16.4
			c12.1-11.5,27.2-18,42.5-18c15.6,0,29.9,6.5,40.4,18.3c11.2,12.6,17.1,30.2,17.1,50.8c0,25-16.6,50.4-49.4,75.3
			c-23.5,17.9-46.7,28.8-47.6,29.3l-3.4,1.6L284.3,289.3z"/>
		<path class="st3" d="M330.7,123.8c25.7,0,49.3,21.2,49.3,60.9c0,53.9-92.3,97.1-92.3,97.1s-92.3-41.6-92.3-97.1
			c0-39.5,27-59.4,53-59.4c15.4,0,30.4,6.9,39.3,20.8C299.9,131.1,315.6,123.8,330.7,123.8 M330.7,107.4L330.7,107.4L330.7,107.4
			c-15,0-29.8,5.4-42.4,15.2c-11-8.8-25-13.7-39.9-13.7c-17.8,0-35.2,7.2-47.8,19.6c-9.9,9.8-21.6,27.5-21.6,56.2
			c0,16.3,5.9,32.5,17.6,48.4c8.6,11.6,20.4,23.1,35.1,34.2c24.3,18.2,48.3,29.1,49.3,29.6l6.9,3.1l6.8-3.2
			c1-0.5,24.9-11.8,49.1-30.2c34.9-26.6,52.6-54.1,52.6-81.8c0-22.7-6.6-42.1-19.2-56.2C365.2,114.9,348.6,107.4,330.7,107.4
			L330.7,107.4z"/>
	</g>
</g>
<g id="mag_heart">
	<g>
		<path class="st4" d="M265.5,83.6c-4.6-2.2-9.3-3.9-14-5.3c-1-0.3-2-0.5-3-0.8c-4.9-1.2-9.9-1.9-14.9-2.2l-0.3,0H225l-0.3,0
			c-20.3,1.1-39.3,10.2-53.4,25.5c-14.5,15.7-23.2,37.1-25.3,61.9c0,0.5-0.1,1-0.1,1.4c-0.2,3.3-0.4,6.7-0.4,10.1
			c0,1.9,0.1,3.8,0.2,5.6c3.4,0.8,6.8,1.4,10.2,1.8c-0.2-2.5-0.3-5-0.3-7.5c0-3.2,0.1-6.3,0.3-9.4c3.5-48.6,34.2-77.5,69.4-79.5h7.7
			c5.2,0.3,10.5,1.2,15.8,2.7c5.5,1.5,10.9,3.7,16.3,6.6c0-0.4,0.1-0.9,0.1-1.3C265.4,90,265.5,86.8,265.5,83.6z"/>
		<path class="st2" d="M265.1,94.5c-2.1,21.7-11.4,42.9-28,59.5c-19,18.9-43.8,28.4-68.7,28.4c-4.2,0-8.3-0.3-12.4-0.8
			c-0.2-2.5-0.3-5-0.3-7.5c0-3.2,0.1-6.3,0.3-9.4c3.5-48.6,34.2-77.5,69.4-79.5h7.7c5.2,0.3,10.5,1.2,15.8,2.7
			C254.2,89.5,259.7,91.7,265.1,94.5z"/>
	</g>
</g>
<g id="mag_glass">
	<g>
		<path class="st5" d="M110.5,29.8C128,12.9,151.8,2.5,178,2.5c53.6,0,97.2,43.6,97.2,97.2c0,50.1-38.1,91.4-86.8,96.7
			c-3.4,0.4-6.9,0.6-10.4,0.5c-3.5,0-7-0.2-10.4-0.6c-12.3-1.3-24-4.9-34.5-10.4c-2-1.1-4-2.2-6-3.4c-2.9-1.8-5.8-3.8-8.5-5.9
			c-3.3-2.5-6.4-5.3-9.3-8.2c-17.6-17.6-28.5-41.9-28.5-68.7c0-23.5,8.4-45,22.3-61.8c0.3-0.3,0.6-0.7,0.9-1
			C106,34.4,108.2,32,110.5,29.8z M97.5,99.7c0,22.2,9,42.3,23.6,56.9c2.9,2.9,6.1,5.6,9.5,8.1c2.7,2,5.6,3.8,8.5,5.4
			c3.4,1.9,6.9,3.5,10.6,4.9c8.8,3.3,18.4,5.2,28.3,5.2c44.4,0,80.5-36.1,80.5-80.5c0-22.2-9-42.3-23.6-56.9
			c-14.6-14.6-34.7-23.6-56.9-23.6c-19.4,0-37.2,6.9-51.1,18.4c-0.4,0.3-0.7,0.6-1,0.9c-2.3,2-4.5,4.1-6.6,6.3
			C105.7,59.1,97.5,78.5,97.5,99.7z"/>
		<path class="st3" d="M132.5,174.1l-28.9-28.9L3.9,244.9c-5.2,5.2-5.2,13.7,0,18.9l10,10c5.2,5.2,13.7,5.2,18.9,0L132.5,174.1z"/>
	</g>
</g>
<g id="shine" class="st0">
	<line class="st6" x1="143.2" y1="43.7" x2="202" y2="111.4"/>
	<line class="st6" x1="136.8" y1="76.7" x2="181.3" y2="128"/>
</g>
<g id="Isolation_Mode">
</g>
</svg>
