<?xml version="1.0" encoding="utf-8"?>
<!-- Generator: Adobe Illustrator 27.2.0, SVG Export Plug-In . SVG Version: 6.00 Build 0)  -->
<svg version="1.1" id="Layer_1" xmlns="http://www.w3.org/2000/svg" xmlns:xlink="http://www.w3.org/1999/xlink" x="0px" y="0px"
	 viewBox="0 0 395.5 317.3" style="enable-background:new 0 0 395.5 317.3;" xml:space="preserve">
<style type="text/css">
	.st0{fill:none;stroke:#FFFFFF;stroke-width:20;stroke-miterlimit:10;}
</style>
<g>
	<path class="st0" d="M124.7,216.2c37.4,0,70.6,17.9,91.6,45.6c14.5-19.2,23.2-43.2,23.2-69.1c0-63.4-51.4-114.7-114.7-114.7
		S10,129.2,10,192.6c0,26,8.6,49.9,23.2,69.1C54.1,234,87.3,216.2,124.7,216.2z"/>
	<path class="st0" d="M124.7,307.3c37.4,0,70.6-17.9,91.6-45.6c-20.9-27.7-54.2-45.6-91.6-45.6S54.1,234,33.2,261.7
		C54.1,289.4,87.3,307.3,124.7,307.3z"/>
	<circle class="st0" cx="124.7" cy="149" r="38"/>
</g>
<g>
	<path class="st0" d="M270.7,148.3c37.4,0,70.6,17.9,91.6,45.6c14.5-19.2,23.2-43.2,23.2-69.1C385.5,61.4,334.1,10,270.7,10
		c-49.7,0-92.1,31.7-108,75.9"/>
	<path class="st0" d="M230.8,232.3c12.4,4.6,25.9,7.1,39.9,7.1c37.4,0,70.6-17.9,91.6-45.6c-20.9-27.7-54.2-45.6-91.6-45.6
		c-13.4,0-26.3,2.3-38.3,6.6"/>
	<circle class="st0" cx="270.7" cy="81.2" r="38"/>
</g>
<path class="st0" d="M167.1,75.3"/>
</svg>
